<?xml version="1.0" encoding="UTF-8"?>
<!-- Generator: Adobe Illustrator 22.1.0, SVG Export Plug-In . SVG Version: 6.00 Build 0)  -->
<svg version="1.1" id="Capa_1" xmlns="http://www.w3.org/2000/svg" xmlns:xlink="http://www.w3.org/1999/xlink" x="0px" y="0px" viewBox="0 0 186 58" style="enable-background:new 0 0 186 58;" xml:space="preserve">
<style type="text/css">
	.st0{fill:#00953A;}
</style>
<g>
	<g>
		<path class="st0" d="M39.3,24.7c-3.1-7.9-10.8-7.6-10.8-7.6c-6.3,0-11.5,5.1-11.5,11.5c0,6.3,5.1,11.5,11.5,11.5    c0,0,7.7,0.3,10.8-7.5L34,30.1c-1.4,4.4-5.5,4.2-5.5,4.2c-3.2,0-5.7-2.6-5.7-5.7c0-3.2,2.6-5.7,5.7-5.7c0,0,4.2-0.2,5.5,4.2    L39.3,24.7z"/>
		<path class="st0" d="M25.6,1.4l5.7,0l0,13c0,0-2.9-0.7-5.7,0L25.6,1.4z"/>
		<path class="st0" d="M31.3,55.8l-5.7,0l0-13c0,0,2.9,0.7,5.7,0L31.3,55.8z"/>
		<path class="st0" d="M1.2,31.5l0-5.7l13,0c0,0-0.7,2.9,0,5.7L1.2,31.5z"/>
		<path class="st0" d="M55.6,25.7l0,5.7l-13,0c0,0,0.7-2.9,0-5.7L55.6,25.7z"/>
		<path class="st0" d="M45.6,7.3l4.1,4.1l-9.2,9.2c0,0-1.5-2.5-4.1-4.1L45.6,7.3z"/>
		<path class="st0" d="M11.2,49.8l-4.1-4.1l9.2-9.2c0,0,1.5,2.5,4.1,4.1L11.2,49.8z"/>
		<path class="st0" d="M7.2,11.4l4.1-4.1l9.2,9.2c0,0-2.5,1.5-4.1,4.1L7.2,11.4z"/>
		<path class="st0" d="M49.7,45.8l-4.1,4.1l-9.2-9.2c0,0,2.5-1.5,4.1-4.1L49.7,45.8z"/>
	</g>
	<g>
		<path class="st0" d="M81.2,21.9l2.6-0.5c-1.1-4.8-3.9-7.3-8.2-7.3c-2.4,0-4.6,0.9-6.2,2.7c-2.1,2.2-3.1,5.2-3.1,9.1    c0,7.4,3.6,11.8,9.3,11.8c4.3,0,7.2-2.5,8.2-7.4l-2.5-0.6c-0.9,3.7-2.8,5.6-5.7,5.6c-3.8,0-6.3-3.4-6.3-9.4c0-6,2.5-9.4,6.3-9.4    C78.4,16.5,80.5,18.4,81.2,21.9"/>
		<path class="st0" d="M96.5,28.7l0,0.9c0,3.3-2.3,5.9-5.3,5.9c-2.2,0-3.5-1.2-3.5-3c0-2.5,2.3-3.8,6.8-3.8    C95.2,28.7,95.8,28.7,96.5,28.7 M96.9,37.2l2.5,0c-0.4-1-0.5-2.2-0.5-3.4l0-7.2c0-4.5-1.8-6.6-6.2-6.6c-4.1,0-6.6,1.6-7.3,4.6    l2.4,0.4c0.5-2,1.9-2.9,4.5-2.9c2.8,0,4.2,1.2,4.2,3.7l0,1c-0.5,0-1,0-1.4,0c-6.7,0-10.1,2-10.1,5.7c0,2.9,2.3,5.1,5.7,5.1    c2.5,0,4.6-1.3,5.8-3.6C96.5,35.2,96.6,36.3,96.9,37.2"/>
		<path class="st0" d="M100.1,37.2l2.4,0l0-9.3c0-3.5,2.1-5.9,4.8-5.9c2.2,0,3.5,1.5,3.5,4.3l0,10.8l2.4,0l0-10.6    c0-4.4-1.9-6.6-5.4-6.6c-2.3,0-4,1.1-5.4,3.6l0-3.1l-2.3,0L100.1,37.2z"/>
		<path class="st0" d="M125.5,28.8l0,0.9c0,3.3-2.3,5.9-5.3,5.9c-2.2,0-3.5-1.2-3.5-3c0-2.5,2.3-3.8,6.8-3.8    C124.2,28.7,124.9,28.7,125.5,28.8 M125.9,37.2l2.5,0c-0.4-1-0.5-2.2-0.5-3.4l0-7.2c0-4.5-1.8-6.6-6.2-6.6c-4.1,0-6.6,1.6-7.3,4.6    l2.4,0.4c0.5-2,1.9-2.9,4.5-2.9c2.8,0,4.2,1.2,4.2,3.7l0,1c-0.5,0-1,0-1.4,0c-6.7,0-10.1,2-10.1,5.7c0,2.9,2.3,5.1,5.7,5.1    c2.5,0,4.6-1.3,5.8-3.6C125.5,35.2,125.7,36.3,125.9,37.2"/>
		<rect x="129.9" y="14.6" class="st0" width="2.5" height="22.6"/>
		<path class="st0" d="M135,30.7c1.1,4.4,4.8,6.9,10.6,6.9c3.1,0,5.7-0.9,7.6-2.7c1.4-1.3,2.2-3.1,2.2-5c0-2-0.8-3.7-2.2-4.8    c-1.8-1.4-3.8-1.8-6-2.3c-2.7-0.7-4.1-0.7-4.1-2.1c0-0.9,0.9-1.6,2.3-1.6c1.9,0,3,0.7,3.6,2.3l5.8-1.7c-1.4-3.7-4.5-5.7-9-5.7    c-6,0-9.7,3.2-9.7,7.5c0,3.7,2.5,5.5,7.6,6.8c3,0.8,4.6,0.7,4.6,2.4c0,0.9-0.9,1.6-2.5,1.6c-2.4,0-3.8-0.9-4.3-2.8L135,30.7z"/>
		<path class="st0" d="M171.9,20.5l-6.4,0l0,10.3c0,1.6-0.7,2.4-1.8,2.4c-1.1,0-1.5-0.8-1.5-2.3l0-10.3l-6.4,0l0,11    c0,4.2,1.5,6.2,5.4,6.2c2.2,0,3.8-1,4.8-2.8l0,2.4l6,0L171.9,20.5L171.9,20.5z"/>
		<path class="st0" d="M173.2,37.2l6.4,0l0-8.1c0-2.2,1.1-3.3,3.3-3.3c0.3,0,0.7,0,1.2,0.1l0-5.9c-0.3,0-0.6-0.1-0.9-0.1    c-2.4,0-3.8,1.3-4.4,3.8l0-3.4l-5.6,0L173.2,37.2L173.2,37.2z"/>
		<g>
			<path class="st0" d="M70.9,49l-1.6-3.8l-2.4,0l0,3.8l-1.1,0l0-8.7l3.3,0c0.7,0,1.4,0.1,2,0.5c0.6,0.4,0.9,1.2,0.9,1.9     c0,1-0.6,2-1.6,2.2l1.7,4L70.9,49L70.9,49z M69,44.3c0.6,0,1.1,0,1.5-0.5c0.3-0.3,0.4-0.7,0.4-1.1c0-0.5-0.2-0.9-0.6-1.2     c-0.4-0.3-0.7-0.3-1.2-0.3l-2.2,0l0,3.1L69,44.3L69,44.3z"/>
			<path class="st0" d="M79,49l-0.9-2.5l-3.2,0L74.1,49l-0.9,0l2.8-8.7l1.3,0l2.8,8.7L79,49z M76.6,41.4l-1.3,4.2l2.7,0L76.6,41.4z"/>
			<path class="st0" d="M81.5,40.3l2.8,0c1.2,0,2.2,0.3,3,1.2c0.7,0.9,1.1,2,1.1,3.1c0,1.1-0.3,2.1-0.9,3c-0.7,1-1.6,1.4-2.8,1.4     l-3.1,0L81.5,40.3L81.5,40.3z M84.2,48.1c1,0,1.8-0.2,2.4-1.1c0.4-0.7,0.6-1.6,0.6-2.4c0-0.9-0.2-1.8-0.8-2.5     c-0.6-0.8-1.3-0.9-2.2-0.9l-1.6,0l0,6.9L84.2,48.1z"/>
			<path class="st0" d="M90.2,49l0-8.7l1.1,0l0,8.7L90.2,49z"/>
			<path class="st0" d="M93.2,44.7c0-2.2,1.1-4.6,3.6-4.6c2.5,0,3.6,2.2,3.6,4.4c0,2.1-1.1,4.6-3.6,4.6     C94.3,49.1,93.2,46.9,93.2,44.7z M99.3,44.6c0-0.8-0.1-1.7-0.5-2.4c-0.4-0.7-1.1-1.2-1.9-1.2c-1.9,0-2.5,2.1-2.5,3.7     c0,1.5,0.6,3.5,2.5,3.5C98.7,48.2,99.3,46.1,99.3,44.6z"/>
			<path class="st0" d="M109.6,45.3l0,3.7l-1.1,0l0-3.7l-2.9-5l1.3,0l2.3,4l2.3-4l1,0L109.6,45.3z"/>
			<path class="st0" d="M119.5,49l0-7.8l-2.5,0l0-1l6.1,0l0,1l-2.5,0l0,7.8L119.5,49z"/>
			<path class="st0" d="M130.2,49l-5.6,0l0-8.7l5.5,0l0,0.9l-4.4,0l0,2.8l3.5,0l0,0.9l-3.5,0l0,3.2l4.6,0L130.2,49z"/>
			<path class="st0" d="M137.1,49l-5.1,0l0-8.7l1.1,0l0,7.8l4.1,0L137.1,49z"/>
			<path class="st0" d="M144.3,49l-5.6,0l0-8.7l5.5,0l0,0.9l-4.4,0l0,2.8l3.5,0l0,0.9l-3.5,0l0,3.2l4.6,0L144.3,49L144.3,49z"/>
			<path class="st0" d="M149.3,49l-1,0l-2.9-8.7l1.1,0l2.4,7.2l2.4-7.2l1,0L149.3,49z"/>
			<path class="st0" d="M153.6,49l0-8.7l1.1,0l0,8.7L153.6,49z"/>
			<path class="st0" d="M157.6,46.4c0.4,1.2,1.4,1.8,2.6,1.8c0.5,0,1.2-0.1,1.6-0.4c0.3-0.3,0.5-0.7,0.5-1.1c0-0.9-0.7-1.2-1.5-1.4     l-1.4-0.4c-0.6-0.1-1.1-0.3-1.6-0.7c-0.5-0.4-0.7-1-0.7-1.6c0-1.7,1.5-2.4,3-2.4c1.5,0,2.6,0.7,3.1,2.1l-1,0.3     c-0.2-1-1.2-1.5-2.1-1.5c-0.8,0-1.9,0.4-1.9,1.4c0,1,0.8,1.2,1.6,1.4l1.3,0.3c0.6,0.1,1.1,0.3,1.6,0.7c0.5,0.4,0.8,1,0.8,1.7     c0,0.8-0.3,1.5-1,2c-0.6,0.5-1.5,0.6-2.3,0.6c-1.8,0-2.9-0.8-3.5-2.5L157.6,46.4z"/>
			<path class="st0" d="M165.3,49l0-8.7l1.1,0l0,8.7L165.3,49z"/>
			<path class="st0" d="M168.4,44.7c0-2.2,1.1-4.6,3.6-4.6c2.5,0,3.6,2.2,3.6,4.4c0,2.1-1.1,4.6-3.6,4.6     C169.5,49.1,168.4,46.9,168.4,44.7z M174.4,44.6c0-0.8-0.1-1.7-0.5-2.4c-0.4-0.7-1.1-1.2-1.9-1.2c-1.9,0-2.5,2.1-2.5,3.7     c0,1.5,0.6,3.5,2.5,3.5C173.8,48.2,174.4,46.1,174.4,44.6z M170.7,39.7l-0.3-0.5l2.6-1.5l0.4,0.8L170.7,39.7z"/>
			<path class="st0" d="M182.9,49l-4.4-7.6l0,7.6l-0.9,0l0-8.7l1.4,0l4.1,7.1l0-7.1l0.9,0l0,8.7L182.9,49z"/>
		</g>
	</g>
</g>
</svg>